<svg xmlns="http://www.w3.org/2000/svg" version="1.1" width="480" height="168" xmlns:xlink="http://www.w3.org/1999/xlink"><defs><pattern id="gold" width="100" height="100" patternUnits="userSpaceOnUse"><image xlink:href="img/gold_glitter.png" x="0" y="0" width="100" height="100"/></pattern></defs><path fill="none" stroke="#00ff00" stroke-width="12" stroke-linecap="round" stroke-linejoin="round" d="M 184 1 c 0.02 0.72 0.39 26.86 1 41 c 0.43 10.02 1.65 19 2 29 c 0.68 19.27 2.82 51.57 1 56 c -0.78 1.9 -10.82 -12.26 -17 -17 c -7.85 -6.02 -16.88 -10.89 -26 -16 c -13.49 -7.56 -26.22 -14.7 -40 -21 c -9.74 -4.45 -19.79 -8.25 -30 -11 c -10.71 -2.89 -21.89 -4.95 -33 -6 c -13.58 -1.28 -41.85 -0.79 -41 -1 c 2.99 -0.73 93.98 -17.3 143 -24 c 30.89 -4.22 59.87 -6.84 91 -8 c 51.45 -1.91 100.2 -1.57 151 -1 c 8.81 0.1 17.39 1.53 26 3 c 5.11 0.87 9.89 2.51 15 4 c 3.13 0.91 6.86 1.57 9 3 l 3 5" transform="translate(20,20)" stroke-opacity="1"/></svg>