<?xml version="1.0" encoding="UTF-8" standalone="no"?><!DOCTYPE svg PUBLIC "-//W3C//DTD SVG 1.1//EN" "http://www.w3.org/Graphics/SVG/1.1/DTD/svg11.dtd"><svg xmlns="http://www.w3.org/2000/svg" version="1.1" width="628" height="164"><path fill="none" stroke="#0000FF" stroke-width="10" stroke-linecap="round" stroke-linejoin="round" d="M 1 156 c 0.21 -0.23 8.59 -8.22 12 -13 c 12.23 -17.18 23.67 -34.46 35 -53 c 11.26 -18.43 20.38 -37.2 31 -55 c 1.55 -2.6 3.94 -5.5 6 -7 c 1.14 -0.83 4.78 -1.84 5 -1 c 2.21 8.51 4.94 33.41 8 51 c 2.48 14.23 4.94 27 8 41 c 1.74 7.97 3.62 15.42 6 23 c 1.3 4.15 3.02 8.22 5 12 c 1.65 3.15 4.09 7.61 6 9 c 0.9 0.66 4.96 0 5 -1 c 0.98 -27.17 -0.6 -91.74 0 -138 c 0.07 -5.07 0.54 -10.81 2 -15 c 0.96 -2.77 4.35 -8.1 6 -8 c 2.22 0.14 7.64 5.5 10 9 c 6.83 10.12 12.9 22.19 19 34 c 4.49 8.69 7.56 17.28 12 26 c 4.79 9.4 9.73 18.31 15 27 c 1.33 2.2 4.22 5.74 5 6 c 0.41 0.14 0.96 -2.67 1 -4 c 0.29 -10.32 -0.46 -21.32 0 -32 c 0.21 -4.72 0.54 -10.9 2 -14 c 0.69 -1.47 4.31 -3.11 6 -3 c 2.47 0.16 6.51 2.24 9 4 c 2.86 2.02 5.46 5.12 8 8 c 4.94 5.61 10.38 14.14 14 17 c 0.88 0.7 3.37 -1.73 5 -2 c 2.12 -0.35 4.83 -0.43 7 0 c 4.22 0.84 8.81 2.32 13 4 c 4.13 1.65 7.79 4.35 12 6 c 12.99 5.09 26.32 8.63 39 14 c 6.99 2.96 14.18 7.04 20 11 c 1.99 1.35 3.08 4.56 5 6 c 3.09 2.32 7.29 4.52 11 6 c 2.73 1.09 6.01 1.73 9 2 c 4.22 0.38 9.3 1 13 0 c 4.21 -1.13 10.52 -3.73 13 -7 c 4.81 -6.35 8.1 -18.71 12 -26 c 0.49 -0.92 2.38 -2.21 3 -2 c 0.86 0.29 2.39 2.63 3 4 c 0.62 1.4 0.15 3.87 1 5 c 1.77 2.36 6 6.33 8 7 c 0.94 0.31 3.14 -1.74 4 -3 c 3.77 -5.54 7.84 -12.49 11 -19 c 2.14 -4.41 2.99 -9.42 5 -14 c 2.71 -6.21 5.66 -12.11 9 -18 c 2.39 -4.22 5.09 -8.46 8 -12 c 1.58 -1.92 3.98 -4.33 6 -5 c 2.33 -0.78 7.33 -1.54 9 0 c 8.69 8.02 20.4 25.89 30 36 c 1.56 1.64 4.72 2.54 7 3 c 2.39 0.48 5.68 -0.58 8 0 c 2.59 0.65 5.75 2.31 8 4 c 2.84 2.13 5.61 5.06 8 8 c 7.68 9.47 18.31 26.4 22 29 c 1.13 0.8 3.1 -7.26 5 -10 c 0.85 -1.23 2.67 -2.6 4 -3 c 1.6 -0.48 4.03 -0.23 6 0 c 3.66 0.43 7.94 0.38 11 2 c 17.56 9.31 55 33 55 33"/></svg>
